<svg width="422" height="280" viewBox="0 0 422 280" fill="none" xmlns="http://www.w3.org/2000/svg">
<g clip-path="url(#clip0_650_12290)">
<path d="M357.633 280H39.2625C37.4629 280 36.0056 278.54 36.0056 276.738V276.043C36.0056 274.241 37.4629 272.782 39.2625 272.782H357.631C359.431 272.782 360.888 274.241 360.888 276.043V276.738C360.89 278.539 359.431 280 357.633 280Z" fill="#4A6590"/>
<path d="M294.61 22.7014C292.925 20.2905 290.07 18.7695 286.883 18.9512C286.785 18.9568 286.688 18.9643 286.591 18.9718C282.247 19.3614 278.807 22.958 278.601 27.3188C278.522 29.0272 278.926 30.6325 279.686 32.0093C280.053 32.6706 280.498 33.2794 281.014 33.8226V33.8245C281.422 34.2497 281.867 34.6356 282.35 34.9746C283.523 35.7951 284.256 37.0914 284.426 38.5L284.019 38.5056C283.903 38.5075 283.794 38.5581 283.719 38.6349C283.706 38.6499 283.693 38.6649 283.68 38.6817C283.629 38.7529 283.598 38.8428 283.599 38.9383C283.603 39.1744 283.798 39.3654 284.033 39.3617C283.918 39.3636 283.809 39.4141 283.734 39.4909C283.727 39.4984 283.721 39.5078 283.712 39.5153C283.648 39.5921 283.611 39.6895 283.613 39.7944C283.616 40.0304 283.811 40.2215 284.047 40.2177C283.931 40.2196 283.822 40.2702 283.747 40.3489C283.736 40.362 283.723 40.3751 283.712 40.3901C283.659 40.4631 283.626 40.5568 283.628 40.6542C283.631 40.8884 283.826 41.0794 284.062 41.0757C283.946 41.0776 283.837 41.1281 283.762 41.2068C283.757 41.2124 283.753 41.2162 283.749 41.2237C283.682 41.2986 283.641 41.4016 283.643 41.5121C283.646 41.7482 283.841 41.9374 284.077 41.9336L284.518 41.9261C284.524 42.031 284.533 42.1359 284.548 42.2389C284.606 42.5949 284.731 42.9283 284.907 43.228C284.941 43.2842 284.976 43.3404 285.012 43.3928C285.031 43.4191 285.049 43.4453 285.07 43.4715C285.096 43.5071 285.122 43.5408 285.148 43.5745C285.169 43.5989 285.188 43.6232 285.21 43.6476C285.244 43.6851 285.278 43.7225 285.311 43.76C285.328 43.7769 285.343 43.7937 285.36 43.8106C285.41 43.8611 285.463 43.9098 285.517 43.9548C285.536 43.9717 285.554 43.9867 285.575 44.0016C285.614 44.0335 285.655 44.0653 285.698 44.0972C285.719 44.1122 285.741 44.129 285.762 44.1421C285.813 44.1758 285.863 44.2096 285.914 44.2395C285.927 44.247 285.938 44.2564 285.951 44.2639C286.015 44.3014 286.08 44.3351 286.147 44.3669C286.168 44.3763 286.189 44.3856 286.211 44.395C286.262 44.4175 286.312 44.4381 286.364 44.4587C286.387 44.4681 286.409 44.4756 286.434 44.4849C286.499 44.5074 286.565 44.528 286.63 44.5467C286.638 44.5486 286.645 44.5524 286.652 44.5542C286.727 44.573 286.802 44.5898 286.879 44.6029C286.901 44.6067 286.924 44.6104 286.946 44.6142C287.004 44.6235 287.062 44.631 287.12 44.6367C287.144 44.6385 287.167 44.6404 287.191 44.6423C287.272 44.6479 287.35 44.6516 287.433 44.6498L287.913 44.6423C288.708 44.631 289.425 44.2976 289.936 43.7675C290.356 43.3366 290.639 42.7728 290.725 42.1472C290.733 42.0928 290.736 42.0385 290.74 41.9842C290.744 41.9355 290.746 41.8868 290.746 41.8362V41.8343L291.146 41.8287C291.262 41.8268 291.37 41.7763 291.445 41.6995C291.522 41.6189 291.569 41.514 291.567 41.396C291.565 41.2855 291.522 41.1843 291.449 41.1113C291.37 41.0232 291.256 40.9708 291.131 40.9727C291.247 40.9708 291.355 40.9202 291.43 40.8434C291.507 40.7629 291.554 40.6561 291.552 40.5399C291.55 40.4425 291.514 40.3507 291.456 40.2796C291.376 40.1803 291.253 40.1147 291.116 40.1166C291.232 40.1147 291.34 40.0641 291.415 39.9855C291.492 39.9068 291.539 39.7982 291.537 39.682C291.535 39.5771 291.496 39.4816 291.428 39.4048C291.348 39.3149 291.23 39.2587 291.103 39.2605C291.219 39.2587 291.327 39.2081 291.402 39.1294C291.479 39.0507 291.526 38.944 291.524 38.826C291.522 38.7285 291.488 38.6405 291.434 38.5712C291.354 38.4682 291.228 38.4026 291.09 38.4045L290.686 38.4101C290.813 36.9958 291.511 35.679 292.656 34.8229C294.842 33.1895 296.244 30.5651 296.199 27.6242C296.171 25.7884 295.589 24.095 294.61 22.7014Z" fill="#4A6590"/>
<path d="M52.5483 159.825C51.8374 159.324 51.0555 158.959 50.2398 158.729C50.0939 159.607 49.3101 160.255 48.4009 160.209C47.4918 160.162 46.779 159.441 46.7229 158.551C45.8904 158.697 45.0767 158.98 44.3172 159.403C44.8335 160.128 44.7381 161.141 44.0628 161.752C43.3856 162.365 42.3698 162.355 41.7019 161.767C41.2025 162.479 40.8377 163.262 40.6094 164.077C41.4868 164.223 42.1322 165.006 42.0854 165.916C42.0387 166.827 41.3147 167.542 40.428 167.598C40.5758 168.434 40.8582 169.249 41.2829 170.009C42.005 169.488 43.0189 169.582 43.6325 170.262C44.2442 170.94 44.2349 171.961 43.6456 172.628C44.3565 173.128 45.1384 173.493 45.9522 173.722C46.0981 172.843 46.8819 172.195 47.7911 172.242C48.7003 172.289 49.413 173.01 49.4691 173.9C50.3016 173.754 51.1153 173.471 51.8748 173.048C51.3585 172.323 51.4539 171.309 52.1293 170.699C52.8065 170.086 53.8222 170.095 54.4901 170.684C54.9896 169.972 55.3544 169.189 55.5826 168.374C54.7052 168.228 54.0598 167.445 54.1066 166.534C54.1534 165.624 54.8773 164.908 55.764 164.852C55.6181 164.019 55.3357 163.204 54.9129 162.443C54.187 162.962 53.175 162.869 52.5633 162.19C51.9478 161.509 51.9572 160.491 52.5483 159.825ZM50.8927 163.698C52.2864 165.244 52.1667 167.628 50.6215 169.026C49.0763 170.423 46.6949 170.3 45.3012 168.754C43.9056 167.207 44.0254 164.822 45.5706 163.425C47.1158 162.027 49.4972 162.151 50.8927 163.698Z" fill="#4A6590"/>
<path d="M44.7455 183.407C43.7241 185.471 41.2267 186.318 39.1633 185.293C37.0999 184.27 36.2581 181.766 37.2795 179.703C38.3009 177.637 40.8002 176.79 42.8636 177.813C44.927 178.836 45.7669 181.339 44.7455 183.407ZM49.3999 183.536C49.6225 182.599 49.6805 181.646 49.5869 180.713C48.6254 180.921 47.6395 180.376 47.3178 179.42C46.996 178.465 47.4468 177.437 48.3392 177.019C47.8509 176.221 47.228 175.498 46.4853 174.889C45.9503 175.717 44.8709 176.03 43.9673 175.582C43.0638 175.135 42.6597 174.084 42.9927 173.156C42.0573 172.934 41.1051 172.875 40.1754 172.971C40.383 173.934 39.8405 174.917 38.8865 175.239C37.9324 175.562 36.9016 175.108 36.4845 174.215C35.6857 174.706 34.9636 175.329 34.3556 176.075C35.1843 176.607 35.5005 177.69 35.0515 178.598C34.6044 179.503 33.5512 179.909 32.6271 179.572C32.4045 180.509 32.3465 181.462 32.4419 182.391C33.4034 182.183 34.3893 182.729 34.711 183.684C35.0328 184.639 34.582 185.668 33.6896 186.085C34.1779 186.883 34.8008 187.606 35.5435 188.215C36.0785 187.387 37.1579 187.074 38.0615 187.522C38.965 187.97 39.3691 189.021 39.0361 189.948C39.9715 190.171 40.9237 190.229 41.8515 190.133C41.6439 189.171 42.1864 188.187 43.1405 187.865C44.0945 187.543 45.1253 187.996 45.5424 188.89C46.3394 188.401 47.0615 187.777 47.6694 187.033C46.8407 186.496 46.5264 185.417 46.9735 184.51C47.4225 183.603 48.472 183.199 49.3999 183.536Z" fill="#4A6590"/>
<path d="M21.7191 96.0915C23.5468 100.406 28.2142 102.608 32.6197 101.529L39.4011 117.542L42.1716 116.365L35.3903 100.355C39.2364 97.9385 40.892 93.0476 39.0625 88.7261C37.0327 83.9325 31.5048 81.6772 26.7177 83.7096C21.9343 85.7421 19.6894 91.2999 21.7191 96.0915ZM37.1787 89.5259C38.7594 93.2574 37.0028 97.607 33.2764 99.1898C29.5275 100.782 25.2061 99.0137 23.6254 95.2823C22.0353 91.5284 23.7806 87.2106 27.5277 85.6184C31.256 84.0356 35.5904 85.7739 37.1787 89.5259Z" fill="#4A6590"/>
<path d="M46.5938 45.0389C44.1282 42.57 40.8545 41.21 37.3731 41.21C33.8917 41.21 30.6179 42.57 28.1523 45.0389L26.8279 43.7127C29.647 40.8897 33.3922 39.335 37.3731 39.335C41.3539 39.335 45.0991 40.8897 47.9182 43.7127L46.5938 45.0389Z" fill="#4A6590"/>
<path d="M40.5664 51.0677C38.8042 49.305 35.9383 49.305 34.178 51.0677L32.8535 49.7415C35.3453 47.2463 39.3991 47.2463 41.8909 49.7415L40.5664 51.0677Z" fill="#4A6590"/>
<path d="M54.2545 37.3288C44.9458 28.0077 29.8006 28.0077 20.4919 37.3288L19.1675 36.0026C29.2057 25.951 45.5407 25.951 55.5789 36.0026L54.2545 37.3288Z" fill="#4A6590"/>
<path d="M61.6474 29.9412C48.2625 16.5384 26.4837 16.5384 13.0969 29.9412L11.7725 28.615C18.6155 21.7628 27.7072 17.9883 37.3712 17.9883C47.0353 17.9883 56.127 21.7628 62.97 28.615L61.6474 29.9412Z" fill="#4A6590"/>
<path d="M295.516 119.06C295.327 111.629 294.48 104.361 293.011 97.3212C292.931 96.8754 292.835 96.4446 292.742 96.0137C281.227 43.4889 235.655 3.74876 180.398 1.19932C178.512 1.10566 176.614 1.06445 174.702 1.06445C165.449 1.06445 156.427 2.10221 147.767 4.08594C140.805 5.6763 134.072 7.86233 127.635 10.586C124.645 11.8541 121.723 13.2422 118.867 14.7258C99.3385 24.9348 82.9492 40.3213 71.5155 59.0778C64.8763 69.9611 59.9058 81.9628 56.9576 94.7456C56.7967 95.4612 56.634 96.1748 56.4862 96.8904C54.7764 105.022 53.8728 113.436 53.8728 122.066C53.8728 138.397 57.1054 153.973 62.9626 168.2C81.0617 212.134 124.279 243.07 174.7 243.07C188.074 243.07 200.948 240.899 212.975 236.866C216.059 235.841 219.075 234.695 222.038 233.427C254.441 219.604 279.583 192.014 290.128 158.004C293.643 146.648 295.542 134.579 295.542 122.066C295.544 121.057 295.544 120.058 295.516 119.06Z" fill="#DF941E"/>
<path d="M295.544 122.068C295.544 134.583 293.645 146.652 290.13 158.006C285.511 172.879 278.103 186.54 268.529 198.34C268.516 198.353 268.516 198.353 268.516 198.353C256.193 213.524 240.261 225.66 222.04 233.429C219.077 234.697 216.061 235.843 212.976 236.868C200.95 240.899 188.075 243.072 174.702 243.072C124.28 243.072 81.0634 212.138 62.9643 168.202C57.1052 153.975 53.8745 138.399 53.8745 122.068C53.8745 113.438 54.7762 105.022 56.4879 96.8923C56.6357 96.1767 56.7984 95.463 56.9593 94.7475C59.9094 81.9628 64.878 69.9611 71.5172 59.0797C82.9509 40.3195 99.3402 24.9329 118.867 14.7258C119.755 14.2668 120.657 13.8079 121.56 13.3771C123.553 12.3918 125.573 11.4626 127.635 10.586C134.072 7.86233 140.806 5.67817 147.767 4.08594C156.427 2.10408 165.449 1.06445 174.702 1.06445C176.614 1.06445 178.512 1.10566 180.398 1.19932C235.653 3.74876 281.227 43.4889 292.742 96.0137C292.835 96.4446 292.93 96.8773 293.011 97.3212C294.479 104.361 295.327 111.629 295.516 119.06C295.544 120.058 295.544 121.057 295.544 122.068Z" fill="#FFD912"/>
<path d="M295.544 122.068C295.544 134.583 293.645 146.652 290.13 158.006C285.511 172.879 278.103 186.54 268.529 198.34C268.516 198.353 268.516 198.353 268.516 198.353C266.604 199.297 264.664 200.187 262.698 201.022C259.735 202.29 256.719 203.437 253.622 204.461C241.595 208.492 228.721 210.665 215.347 210.665C189.894 210.665 166.286 202.777 146.812 189.331C143.338 186.932 140.012 184.356 136.818 181.604C129.236 175.117 122.475 167.701 116.699 159.529C111.5 152.18 107.096 144.223 103.622 135.795C102.734 133.637 101.913 131.453 101.144 129.241C99.6884 125.033 98.4631 120.731 97.4679 116.349C95.5429 107.759 94.5327 98.8328 94.5327 89.6616C94.5327 81.0317 95.4344 72.6154 97.1461 64.4838C97.2939 63.7682 97.4566 63.0545 97.6044 62.339C100.568 49.5543 105.536 37.5526 112.162 26.6712C112.66 25.8619 113.172 25.0527 113.683 24.2435C113.683 24.2304 113.683 24.2304 113.683 24.2304C116.108 20.454 118.747 16.8406 121.561 13.3751C123.553 12.3898 125.573 11.4607 127.635 10.584C134.072 7.86038 140.807 5.67622 147.767 4.08399C156.427 2.10213 165.449 1.0625 174.702 1.0625C176.614 1.0625 178.513 1.10371 180.398 1.19737C235.653 3.74681 281.228 43.487 292.742 96.0118C292.835 96.4426 292.931 96.8754 293.011 97.3193C294.48 104.359 295.327 111.627 295.516 119.058C295.544 120.058 295.544 121.057 295.544 122.068Z" fill="#E5F0F8"/>
<path d="M295.55 122.066C295.55 134.583 293.651 146.658 290.127 158.011C289.086 156.404 289 153.911 288.868 152.997C288.68 151.678 286.799 155.068 286.516 154.001C286.234 152.933 287.551 147.811 286.421 147.341C285.294 146.871 284.73 148.094 283.695 148.564C282.661 149.04 282.75 151.202 281.62 151.395C280.494 151.582 279.082 154.22 278.33 155.538C277.578 156.857 275.696 157.52 274.564 157.99C273.434 158.461 272.495 160.443 272.115 161.664C271.737 162.893 270.419 163.363 269.102 163.078C267.785 162.795 269.197 156.67 269.197 155.447C269.197 154.218 269.01 153.369 267.975 152.242C266.935 151.11 266.935 146.961 266.658 146.208C266.376 145.455 265.811 144.794 265.336 144.041C264.866 143.288 266.183 142.252 266.094 141.029C265.998 139.8 266.183 138.764 267.502 137.823C268.819 136.878 268.164 136.312 268.35 135.371C268.537 134.425 270.046 134.053 270.514 133.577C270.984 133.107 270.419 132.449 271.736 132.071C273.058 131.696 274.658 128.493 274.467 127.547C274.28 126.607 275.219 125.475 275.501 125.475C275.784 125.475 276.259 124.91 276.164 124.344C276.068 123.778 275.881 123.212 276.633 122.459C277.385 121.706 278.42 120.105 278.137 119.159C277.86 118.218 278.233 117.087 278.515 115.768C278.797 114.45 278.985 114.354 279.645 114.545C280.302 114.732 281.244 116.238 281.987 116.238C282.733 116.238 282.846 115.678 282.75 114.167C282.66 112.661 281.903 111.625 281.998 110.615C282.094 109.611 283.502 109.27 283.785 108.794C284.067 108.324 284.163 107.005 284.73 107.193C285.294 107.386 286.046 107.193 287.178 107.288C288.304 107.384 286.613 111.812 287.178 112.751C287.738 113.697 291.221 115.581 291.221 115.581C291.221 115.581 291.503 110.679 291.034 108.703C290.564 106.721 290.282 101.163 290.564 102.199C290.847 103.235 291.316 105.404 292.446 107.288C293.576 109.173 293.481 111.342 293.859 113.601C294.195 115.635 295.293 118.503 295.512 119.063C295.54 120.064 295.55 121.062 295.55 122.066Z" fill="#BBDBF3"/>
<path d="M128.093 223.017C125.588 223.515 118.423 221.129 114.545 218.109C110.652 215.103 95.3407 203.41 93.079 202.277C90.8304 201.144 88.8101 193.227 86.5615 189.466C84.2998 185.69 80.4068 181.415 78.3996 179.662C76.3923 177.908 73.2551 173.89 72.3796 171.867C71.4911 169.872 68.743 167.214 67.6131 166.716C66.4813 166.203 66.6029 161.443 64.5956 160.945C63.3965 160.649 63.0598 164.788 62.9662 168.2C57.1072 153.972 53.8765 138.397 53.8765 122.066C53.8765 113.436 54.7781 105.02 56.4898 96.8901C57.6609 95.5545 59.2099 94.7191 62.94 94.0991C66.6702 93.4659 63.6004 96.3507 62.94 97.9972C62.2797 99.6288 62.347 100.884 62.94 102.77C63.5462 104.645 67.7347 105.278 69.9964 105.912C72.258 106.532 69.6185 103.268 69.9964 100.882C70.3742 98.4955 74.6432 100.127 75.76 100.625C76.8918 101.139 79.9074 100.625 81.1607 100.504C82.4141 100.382 84.1782 99.3703 86.6831 98.9938C89.188 98.6154 88.1909 100.382 87.437 102.392C86.6831 104.402 86.5615 105.022 86.8047 107.165C87.061 109.295 91.0736 115.081 91.8275 115.701C92.5814 116.334 93.3353 117.211 93.8348 119.221C94.3474 121.231 94.845 124.128 95.8421 123.994C96.8522 123.872 97.0954 126.017 99.6134 128.147C100.206 128.645 100.704 128.997 101.149 129.239C101.916 131.451 102.737 133.635 103.628 135.793C107.102 144.221 111.505 152.178 116.704 159.527C116.381 160.053 116.072 160.525 115.803 160.93C114.295 163.168 114.038 169.237 114.927 170.612C115.803 172.002 116.678 173.12 118.186 175.507C119.694 177.906 120.447 176.897 121.944 177.772C123.452 178.661 125.338 182.545 126.967 184.568C128.596 186.578 128.853 188.842 126.589 189.841C124.327 190.839 124.462 194.992 123.963 196.745C123.45 198.512 126.711 198.634 127.478 200.387C128.218 202.153 129.982 202.153 130.226 203.165C130.482 204.163 127.842 206.428 128.596 207.561C129.35 208.681 131.855 211.203 131.236 212.834C130.604 214.466 131.614 217.231 132.111 219.496C132.603 221.764 130.598 222.506 128.093 223.017Z" fill="#93C3E6"/>
<path d="M124.457 136.699C123.959 139.828 124.079 141.716 124.2 144.102C124.322 146.489 122.449 148.499 121.318 151.264C120.388 153.543 118.274 157.102 116.699 159.53C111.5 152.182 107.096 144.224 103.622 135.797C102.734 133.639 101.913 131.454 101.144 129.242C102.597 130.038 103.42 129.688 104.376 129.782C105.63 129.903 107.003 132.788 108.135 134.676C109.266 136.565 111.272 137.319 112.16 137.818C113.036 138.331 114.033 136.699 115.919 135.566C117.804 134.433 118.68 134.056 120.565 133.18C122.451 132.29 122.573 130.658 124.202 130.537C125.83 130.402 124.954 133.556 124.457 136.699Z" fill="#BBDBF3"/>
<path d="M113.683 24.2451C113.171 25.0543 112.66 25.8636 112.162 26.6728C105.536 37.5562 100.568 49.5578 97.6044 62.3406C97.4566 63.0562 97.2939 63.7699 97.1461 64.4854C95.4363 72.617 94.5327 81.0315 94.5327 89.6632C94.5327 98.8326 95.5429 107.76 97.4679 116.351C96.9291 115.703 96.3903 115.043 95.8385 114.328C93.8312 111.685 91.0719 108.678 90.0337 105.913C89.0104 103.135 90.3162 101.882 90.6809 98.8738C91.0439 95.8523 90.318 95.4758 90.0748 94.5992C89.8186 93.7225 91.65 86.8853 91.3282 86.683C89.8204 85.7801 87.0854 88.2471 84.8238 89.4741C82.5752 90.701 80.1245 90.0398 79.3688 88.53C78.628 87.0333 80.783 85.9955 81.7259 82.5956C82.6687 79.2107 80.3116 80.4377 79.1948 80.5182C78.063 80.6119 77.2156 81.7452 75.4234 83.6334C73.6332 85.5216 75.7059 88.7173 74.8585 90.6991C74.0092 92.681 73.2553 89.5658 72.2189 87.6776C71.1826 85.8026 72.3125 85.6152 72.6903 82.5001C73.0682 79.3849 72.4079 77.3225 70.9936 74.3947C69.5925 71.4688 68.6496 79.9506 66.3879 80.5164C64.1262 81.0821 63.8419 83.8207 62.523 86.0854C61.2173 88.337 61.4998 90.3189 60.9348 92.2071C60.4222 93.8798 58.9275 95.0394 56.9614 94.7415C59.9115 81.9569 64.8801 69.9552 71.5193 59.0737C75.2233 58.6429 76.7722 56.1478 77.7824 56.0803C78.7795 56.0129 79.7223 55.8911 82.2946 55.0688C84.8668 54.2596 82.9811 53.5721 83.2916 52.7498C83.6153 51.9405 86.4962 51.6165 87.8169 51.1182C89.1376 50.6199 88.3145 49.4866 88.625 47.1002C88.9487 44.7137 89.7568 46.0886 91.332 45.212C92.894 44.3353 93.2719 43.6478 92.9613 43.202C92.6508 42.7712 90.767 43.9569 90.3218 43.3912C89.8765 42.8255 91.0083 40.6263 90.2675 41.0047C89.5136 41.3831 88.6924 42.8929 88.6924 44.3353C88.6924 45.7777 87.3193 46.4651 86.1875 48.61C85.0557 50.7398 84.545 50.1741 82.9287 50.4982C81.2993 50.8091 80.7868 50.2415 79.8439 50.1741C78.9142 50.1067 80.7325 48.1641 82.2946 46.2759C83.8566 44.3877 84.7452 42.7693 86.6309 41.3138C88.5034 39.8714 88.3145 38.8599 90.0112 37.3632C91.708 35.8534 93.9566 33.776 96.974 32.2662C99.9915 30.7695 100.745 32.6446 100.745 32.6446C100.745 32.6446 102.118 33.6561 105.257 30.1364C108.395 26.6166 106.765 28.6266 109.648 27.2497C112.215 26.0247 112.497 25.4852 113.683 24.2451Z" fill="#93C3E6"/>
<path d="M238.523 102.77C238.644 103.647 236.005 104.267 233.122 102.07C230.239 99.8725 228.732 100.127 226.605 98.7523C224.463 97.3624 223.467 96.6075 221.582 93.3443C219.696 90.0681 220.196 88.9479 219.32 86.5614C218.445 84.175 216.437 85.4281 215.549 86.9398C214.673 88.4496 211.671 87.9382 209.65 87.3182C207.658 86.6851 207.658 84.5534 204.008 82.6652C200.372 80.777 199.242 82.1669 196.359 82.4085C193.476 82.6652 190.702 85.5499 188.575 86.6832C186.448 87.8165 187.067 88.6932 186.946 90.5813C186.824 92.4564 183.552 97.3642 181.801 98.9958C180.037 100.627 181.545 101.006 183.054 103.769C184.562 106.534 184.441 105.535 184.065 107.41C183.687 109.298 182.811 110.808 182.677 113.451C182.555 116.081 181.545 117.726 180.172 117.726C178.786 117.726 176.657 114.948 175.405 112.318C174.139 109.675 171.755 108.92 167.877 106.788C163.984 104.644 165.238 103.902 163.352 100.504C161.466 97.1058 160.215 95.9725 159.716 97.4823C159.218 98.9921 157.332 97.4823 153.939 96.8622C150.558 96.2291 150.302 94.3409 147.421 92.5876C144.538 90.8342 142.655 93.4642 140.891 94.0037C139.14 94.5432 136.622 96.2291 134.588 97.1058C132.555 97.9955 129.47 97.3624 127.478 97.7389C125.457 98.1173 122.198 97.8606 119.694 97.7389C117.176 97.6171 116.3 95.609 113.795 94.0037C111.277 92.4133 110.658 94.2191 109.648 95.2307C108.651 96.2291 110.145 96.8622 112.127 98.7504C114.093 100.626 114.927 100.125 116.934 102.014C118.942 103.902 120.812 105.277 122.457 103.388C124.086 101.513 125.083 101.879 127.223 102.014C129.35 102.135 132.246 101.259 133.621 101.38C134.994 101.515 134.873 105.655 133.499 108.042C132.111 110.428 134.119 113.813 133.499 114.448C132.867 115.081 130.738 115.338 129.352 116.458C127.979 117.591 127.225 119.101 124.705 119.978C122.2 120.854 122.698 122.499 122.2 124.252C121.703 126.019 118.429 127.394 115.548 129.025C112.665 130.657 112.033 133.678 110.147 133.798C108.275 133.92 108.894 130.792 108.02 127.77C107.145 124.749 103.374 125.262 101.623 122.066C100.33 119.734 98.9287 118.088 97.4752 116.349C95.5502 107.759 94.54 98.8328 94.54 89.6616C94.54 81.0317 95.4417 72.6154 97.1534 64.4838C97.3012 63.7682 97.464 63.0545 97.6117 62.339C100.575 49.5543 105.544 37.5526 112.17 26.6712C112.667 25.8619 113.18 25.0527 113.69 24.2435C113.69 24.2304 113.69 24.2304 113.69 24.2304C113.838 24.0693 114.001 23.9063 114.175 23.7321C115.804 22.1005 117.434 22.2223 119.939 22.2223C122.457 22.2223 123.832 21.724 126.093 20.5907C128.342 19.4574 125.596 17.1927 127.09 14.9411C128.598 12.6764 132.867 13.5531 134.242 12.4198C135.628 11.2865 136.625 10.4098 139.4 9.53316C142.148 8.64338 143.534 7.90159 145.163 6.51167C145.796 5.97218 146.793 5.02809 147.777 4.08399C156.436 2.10213 165.459 1.0625 174.711 1.0625C176.623 1.0625 178.522 1.10371 180.407 1.19737C181.781 1.98037 183.021 2.57231 183.694 2.61352C185.821 2.73528 186.953 3.12678 190.346 4.2582C193.727 5.39149 193.605 6.13328 194.859 7.2647C196.112 8.39799 196.61 7.14294 199.881 6.25317C203.14 5.38962 202.265 8.27623 206.534 8.77451C210.79 9.27278 214.305 13.2927 216.944 14.9374C219.584 16.5689 220.203 16.6907 219.071 18.7006C217.939 20.7106 218.33 21.0871 219.206 23.2319C220.081 25.3618 222.089 24.6069 223.099 24.9178C224.096 25.2288 226.101 26.6168 227.731 27.4935C229.36 28.3702 230.492 30.7697 229.616 31.8899C228.741 33.0232 225.858 32.0248 225.604 29.88C225.347 27.7501 222.843 28.0049 220.716 25.7533C218.574 23.5148 218.454 26.3602 217.578 27.6134C216.69 28.8815 215.949 28.3683 214.307 26.4932C212.677 24.605 212.812 26.7498 211.802 28.3683C210.791 30.013 212.299 31.0114 213.809 32.2664C215.317 33.5215 215.695 32.0229 216.448 31.5246C217.202 31.0114 218.697 29.6364 218.334 31.5246C217.943 33.3997 218.832 35.0444 220.207 34.2764C221.593 33.5215 221.971 35.2879 223.6 37.1761C225.23 39.0512 226.981 39.4277 229.876 40.561C232.759 41.6943 231.627 43.0824 232.638 45.8472C233.635 48.6121 234.389 51.3769 234.267 53.7634C234.145 56.1499 234.51 57.4049 232.638 59.9131C230.752 62.4345 230.496 62.678 227.237 63.9312C223.978 65.1993 225.985 64.0661 224.597 64.6861C223.224 65.3192 223.48 66.696 223.103 69.3391C222.712 71.9822 224.1 71.469 226.105 73.1155C228.112 74.7471 230.252 74.3687 233.014 75.2454C235.762 76.122 235.64 76.9987 236.65 79.0218C237.647 81.0317 237.904 81.9084 236.772 83.5399C235.64 85.1715 236.274 86.938 236.394 89.4462C236.529 91.9544 234.508 91.576 234.011 88.1911C233.513 84.7931 232.26 87.1796 230.374 87.1796C228.488 87.1796 227.613 85.6698 225.351 85.0498C223.103 84.4166 223.479 85.4281 222.092 87.3145C220.719 89.1896 223.224 91.4543 223.978 93.4642C224.732 95.4742 227.115 95.2307 230.376 96.2291C233.635 97.2406 233.015 96.8622 234.901 99.1288C236.759 101.38 238.388 101.881 238.523 102.77Z" fill="#BBDBF3"/>
<path d="M147.161 200.457C145.721 200.902 142.892 199.391 140.509 198.138C138.126 196.882 139.822 196.317 139.701 193.674C139.579 191.031 138.126 190.909 136.751 189.656C135.363 188.401 134.422 186.958 133.546 185.638C132.805 184.517 134.354 183.088 136.818 181.606C140.009 184.358 143.336 186.934 146.811 189.333C146.972 189.847 147.094 190.386 147.161 190.978C147.417 193.23 148.979 195.064 149.303 197.384C149.614 199.702 148.603 200.026 147.161 200.457Z" fill="#93C3E6"/>
<path d="M146.811 189.331C143.338 186.931 140.011 184.356 136.818 181.604C137.276 181.334 137.748 181.065 138.259 180.795C141.517 179.041 137.114 174.591 139.699 174.767C141.517 174.889 141.706 175.833 142.649 177.208C143.592 178.596 144.589 179.352 145.343 180.862C146.097 182.359 145.653 183.06 145.721 185.124C145.775 186.662 146.394 187.889 146.811 189.331Z" fill="#BBDBF3"/>
<path d="M219.036 104.368C218.297 102.253 223.177 101.824 225.059 103.049C226.941 104.274 228.165 105.782 230.801 106.254C233.436 106.726 233.719 106.631 235.318 106.254C236.918 105.878 239.082 103.993 239.365 105.878C239.647 107.762 238.706 108.987 240.306 109.553C241.905 110.119 243.787 110.119 245.106 110.778C246.423 111.437 246.14 111.344 246.518 112.852C246.894 114.359 247.835 116.999 246.329 116.999C244.823 116.999 243.506 116.057 240.401 115.68C237.296 115.304 236.637 115.397 234.473 113.324C232.308 111.25 234.566 111.816 230.709 110.591C226.85 109.365 226.191 107.951 224.027 106.632C221.861 105.31 219.696 106.252 219.036 104.368Z" fill="#BBDBF3"/>
<path d="M248.683 116.996C249.528 118.794 251.412 116.243 253.107 115.771C254.802 115.299 254.424 115.677 256.401 115.299C258.377 114.922 258.848 112.659 260.448 112.848C262.047 113.038 259.413 110.964 257.718 111.53C256.023 112.095 255.836 112.095 253.483 112.944C251.13 113.791 247.929 115.394 248.683 116.996Z" fill="#BBDBF3"/>
<path d="M293.017 97.3195C292.313 96.988 291.7 96.6583 291.599 96.4803C291.348 96.042 290.469 93.8428 289.651 93.2172C288.836 92.5878 289.214 94.9106 289.593 96.293C289.967 97.6754 289.844 98.243 289.15 97.8628C288.462 97.4881 288.084 97.6117 287.332 98.3067C286.58 98.996 286.015 98.8668 286.393 95.9202C286.767 92.9662 285.609 93.073 283.693 92.2731C282.573 91.8085 281.244 91.9584 279.927 91.7711C278.61 91.5838 277.602 90.6397 276.85 89.3846C276.098 88.1296 277.666 86.8689 278.797 86.7471C279.927 86.6197 279.426 88.6971 281.618 89.8866C283.817 91.0836 281.996 88.5042 282.183 86.2451C282.376 83.9804 284.258 85.6794 286.391 85.9304C288.523 86.1814 288.396 88.3824 289.084 89.8229C289.778 91.2709 290.343 92.0876 290.781 93.5281C290.968 94.1482 291.827 95.1147 292.738 96.012C292.835 96.4485 292.931 96.8812 293.017 97.3195Z" fill="#BBDBF3"/>
<path d="M247.364 98.6528C246.664 100.504 248.116 101.95 248.995 102.828C249.874 103.709 250.752 104.964 251.191 105.78C251.631 106.597 252.321 107.099 253.449 106.221C254.579 105.34 254.579 104.336 256.65 104.462C258.721 104.587 259.851 106.661 260.539 104.525C261.23 102.39 260.904 102.139 260.941 100.442C260.979 98.7446 262.296 96.5473 261.606 95.4159C260.915 94.2845 259.46 93.908 260.941 92.7766C262.423 91.6451 261.104 91.2686 260.038 91.0176C258.972 90.7666 257.527 90.5774 257.402 89.0077C257.277 87.4379 257.778 86.6212 258.281 85.6153C258.785 84.6094 259.473 83.1651 257.277 83.7308C255.081 84.2965 253.26 84.2965 253.513 86.181C253.765 88.0654 253.576 89.2587 252.132 90.3283C250.69 91.396 251.943 93.9305 251.191 95.1443C250.439 96.3563 247.803 97.4914 247.364 98.6528Z" fill="#BBDBF3"/>
<path d="M225.342 17.573C223.17 17.9083 228.071 18.9873 229.388 21.0591C230.705 23.1327 233.624 22.9435 232.4 25.5829C231.177 28.2222 230.518 27.8438 231.083 29.4473C231.648 31.0489 229.953 32.4632 231.366 32.4632C232.778 32.4632 234.565 31.9911 235.977 33.7819C237.389 35.5727 237.389 33.8756 236.166 31.5209C234.942 29.1644 234.754 28.4114 235.414 27.28C236.072 26.1486 236.261 24.3578 234.943 22.8499C233.626 21.3419 232.731 21.814 231.203 20.2105C229.671 18.6089 226.565 17.3838 225.342 17.573Z" fill="#BBDBF3"/>
<path d="M185.767 110.116C184.456 110.709 185.296 112.425 185.814 113.555C186.332 114.686 185.391 115.392 186.472 116.477C187.555 117.562 189.013 119.116 189.86 118.361C190.708 117.608 193.342 116.617 191.978 115.063C190.614 113.508 190.002 113.461 188.966 112.33C187.93 111.198 187.226 109.456 185.767 110.116Z" fill="#BBDBF3"/>
<path d="M263.865 92.9023C264.095 95.6578 265.371 95.729 264.932 97.6134C264.492 99.4979 264.413 100.88 265.238 100.88C266.063 100.88 266.438 96.1692 267.253 97.8644C268.069 99.5616 268.948 100.44 269.135 99.4342C269.324 98.4283 266.688 96.4408 267.693 95.1408C268.697 93.8426 270.83 90.5121 268.319 92.1455C265.809 93.779 264.868 95.8526 264.492 94.03C264.116 92.2073 263.613 91.3906 265.747 90.7631C267.88 90.1356 269.7 90.2611 269.951 88.815C270.201 87.3707 270.39 84.4167 268.445 86.4903C266.499 88.5639 266.374 88.2492 264.806 89.317C263.239 90.3847 261.733 90.4484 262.359 91.3269C262.988 92.2111 263.761 91.6416 263.865 92.9023Z" fill="#BBDBF3"/>
<path d="M246.705 60.0742C244.91 60.1641 245.106 61.3929 246.234 62.7135C247.364 64.0323 247.551 65.5402 249.057 66.9545C250.563 68.3687 252.351 68.9326 252.727 70.1595C253.103 71.3846 254.562 70.0659 254.491 68.7453C254.42 67.4246 256.304 67.9922 257.245 68.9344C258.186 69.8767 259.22 69.813 259.692 70.6466C260.163 71.4801 261.95 70.1595 260.068 68.9344C258.186 67.7094 257.904 67.1437 255.926 66.3906C253.951 65.6376 254.185 65.7313 253.219 66.3906C252.256 67.05 251.597 67.2729 250.374 65.3248C249.15 63.3748 249.584 61.584 248.567 60.6417C247.553 59.6977 248.589 59.9805 246.705 60.0742Z" fill="#BBDBF3"/>
<path d="M253.32 113.464C253.32 128.148 241.439 140.045 226.794 140.045H139.476C127.932 140.045 118.571 130.673 118.571 119.112C118.571 107.55 127.93 98.1784 139.476 98.1784C141.568 98.1784 143.586 98.4781 145.493 99.057C148.967 92.3602 155.972 87.7952 164.024 87.7952C165.013 87.7952 165.968 87.8702 166.92 88.0013C171.179 74.9075 183.472 65.4609 197.968 65.4609C212.073 65.4609 224.085 74.4018 228.661 86.9542C242.429 87.9114 253.32 99.4166 253.32 113.464Z" fill="#FFD912"/>
<path d="M181.41 116.62L166.966 98.5508L152.523 116.62H160.572V129.594H173.359V116.62H181.41Z" fill="#4A6590"/>
<path d="M190.483 111.525L204.927 129.594L219.371 111.525H211.319V98.5508H198.533V111.525H190.483Z" fill="#4A6590"/>
<path d="M224.09 146.676H211.259V272.778H224.09V146.676Z" fill="#93C3E6"/>
<path d="M236.922 146.676H224.09V272.778H236.922V146.676Z" fill="#BBDBF3"/>
<path d="M269.071 146.676H256.24V272.778H269.071V146.676Z" fill="#93C3E6"/>
<path d="M281.903 146.676H269.072V272.778H281.903V146.676Z" fill="#BBDBF3"/>
<path d="M238.549 146.676H209.632V148.828H238.549V146.676Z" fill="#5999C7"/>
<path d="M238.549 176.14H209.632V178.292H238.549V176.14Z" fill="#5999C7"/>
<path d="M238.549 205.605H209.632V207.758H238.549V205.605Z" fill="#5999C7"/>
<path d="M236.921 231.27H211.259V272.778H236.921V231.27Z" fill="#4A6590"/>
<path d="M283.53 146.676H254.613V148.828H283.53V146.676Z" fill="#5999C7"/>
<path d="M283.53 176.14H254.613V178.292H283.53V176.14Z" fill="#5999C7"/>
<path d="M283.53 205.605H254.613V207.758H283.53V205.605Z" fill="#5999C7"/>
<path d="M273.368 218.382H225.577V272.778H273.368V218.382Z" fill="#85A5D3"/>
<path d="M342.166 194.475H273.368V272.779H342.166V194.475Z" fill="#4A6590"/>
<path d="M268.782 223.59H230.165V232.09H268.782V223.59Z" fill="#BBDBF3"/>
<path d="M268.782 239.03H230.165V247.531H268.782V239.03Z" fill="#BBDBF3"/>
<path d="M268.782 254.472H230.165V262.972H268.782V254.472Z" fill="#BBDBF3"/>
<path d="M290.194 200.887H279.873V215.734H290.194V200.887Z" fill="#93C3E6"/>
<path d="M305.35 200.887H295.03V215.734H305.35V200.887Z" fill="#93C3E6"/>
<path d="M320.507 200.887H310.186V215.734H320.507V200.887Z" fill="#93C3E6"/>
<path d="M335.661 200.887H325.341V215.734H335.661V200.887Z" fill="#93C3E6"/>
<path d="M290.194 220.417H279.873V235.264H290.194V220.417Z" fill="#93C3E6"/>
<path d="M305.35 220.417H295.03V235.264H305.35V220.417Z" fill="#93C3E6"/>
<path d="M320.507 220.417H310.186V235.264H320.507V220.417Z" fill="#93C3E6"/>
<path d="M335.661 220.417H325.341V235.264H335.661V220.417Z" fill="#93C3E6"/>
<path d="M290.194 239.948H279.873V267.657H290.194V239.948Z" fill="#93C3E6"/>
<path d="M335.661 239.948H325.341V267.657H335.661V239.948Z" fill="#93C3E6"/>
<path d="M315.949 245.461H299.584V272.778H315.949V245.461Z" fill="#93C3E6"/>
<path d="M307.767 236.849L293.838 247.532H321.696L307.767 236.849Z" fill="#93C3E6"/>
<path d="M298.138 246.072L307.767 238.686L317.397 246.072H298.138Z" fill="#5999C7"/>
<path d="M90.8922 207.656C90.8922 243.626 83.2934 272.779 73.9287 272.779C64.5564 272.779 56.9595 243.624 56.9595 207.656C56.9595 171.694 64.5583 142.534 73.9287 142.534C83.2934 142.532 90.8922 171.694 90.8922 207.656Z" fill="#85A5D3"/>
<path d="M132.738 207.656C132.738 243.626 125.139 272.779 115.769 272.779H73.9287C83.2935 272.779 90.8923 243.624 90.8923 207.656C90.8923 171.694 83.2935 142.534 73.9287 142.534H115.767C125.139 142.532 132.738 171.694 132.738 207.656Z" fill="#4A6590"/>
<path d="M136.532 214.011H133.181V216.495H136.532V214.011Z" fill="#586773"/>
<path d="M137.389 217.238H136.117C135.993 217.238 135.894 217.139 135.894 217.015V213.491C135.894 213.368 135.993 213.269 136.117 213.269H137.389C137.512 213.269 137.611 213.368 137.611 213.491V217.015C137.611 217.137 137.512 217.238 137.389 217.238Z" fill="#93ACBF"/>
<path d="M136.532 193.607H133.181V196.091H136.532V193.607Z" fill="#586773"/>
<path d="M124.821 240.266H83.5983C80.7903 240.266 78.5137 237.986 78.5137 235.174V180.139C78.5137 177.328 80.7903 175.048 83.5983 175.048H124.819C127.627 175.048 129.904 177.328 129.904 180.139V235.172C129.906 237.986 127.629 240.266 124.821 240.266Z" fill="#586773"/>
<path d="M129.958 240.266H88.7352C85.9273 240.266 83.6506 237.986 83.6506 235.174V180.139C83.6506 177.328 85.9273 175.048 88.7352 175.048H129.958C132.766 175.048 135.043 177.328 135.043 180.139V235.172C135.043 237.986 132.766 240.266 129.958 240.266Z" fill="#93ACBF"/>
<path d="M88.7354 238.48C86.9152 238.48 85.4336 236.997 85.4336 235.174V180.139C85.4336 178.317 86.9152 176.833 88.7354 176.833H129.958C131.779 176.833 133.26 178.317 133.26 180.139V235.174C133.26 236.997 131.779 238.48 129.958 238.48H88.7354Z" stroke="#6ADB6A" stroke-width="3.3622" stroke-miterlimit="10"/>
<path d="M108.64 183.578H89.3975V202.846H108.64V183.578Z" fill="#F9E181"/>
<path d="M131.552 183.578H112.31V202.846H131.552V183.578Z" fill="#455E86"/>
<path d="M108.64 211.744H89.3975V231.012H108.64V211.744Z" fill="#4A6590"/>
<path d="M131.552 211.744H112.31V231.012H131.552V211.744Z" fill="#6ADB6A"/>
<path d="M125.439 200.639C126.782 200.639 127.87 199.94 127.87 199.077C127.87 198.214 126.782 197.515 125.439 197.515C124.095 197.515 123.007 198.214 123.007 199.077C123.007 199.94 124.095 200.639 125.439 200.639Z" fill="white"/>
<path d="M117.935 199.077C119.009 199.077 119.879 198.518 119.879 197.828C119.879 197.137 119.009 196.578 117.935 196.578C116.862 196.578 115.991 197.137 115.991 197.828C115.991 198.518 116.862 199.077 117.935 199.077Z" fill="white"/>
<path d="M127.82 199.077H126.752V190.166L119.821 187.367V197.827H118.754V185.786L127.82 189.445V199.077Z" fill="white"/>
<path d="M119.492 189.008L119.084 189.994L127.082 193.314L127.49 192.327L119.492 189.008Z" fill="white"/>
<path d="M105.061 193.212L94.2351 186.955V199.47L105.061 193.212Z" fill="white"/>
<path d="M105.892 216.946L98.5922 221.804L91.2964 216.946H105.892Z" fill="#E5F0F8"/>
<path d="M105.892 216.946V226.663H91.2964V216.946L98.5922 221.804L105.892 216.946Z" fill="white"/>
<path d="M91.2964 226.663L98.5922 221.804L105.892 226.663H91.2964Z" fill="white"/>
<path d="M105.892 217.798C106.362 217.798 106.743 217.417 106.743 216.946C106.743 216.475 106.362 216.094 105.892 216.094C105.422 216.094 105.041 216.475 105.041 216.946C105.041 217.417 105.422 217.798 105.892 217.798Z" fill="#455E86"/>
<path d="M121.682 224.922C124.973 224.922 127.641 223.202 127.641 221.08C127.641 218.958 124.973 217.238 121.682 217.238C118.392 217.238 115.724 218.958 115.724 221.08C115.724 223.202 118.392 224.922 121.682 224.922Z" fill="white"/>
<path d="M127.132 222.633L128.138 225.518L121.682 224.922L124.195 221.855L127.132 222.633Z" fill="white"/>
<path d="M119.361 221.706C119.706 221.706 119.986 221.426 119.986 221.081C119.986 220.735 119.706 220.455 119.361 220.455C119.016 220.455 118.736 220.735 118.736 221.081C118.736 221.426 119.016 221.706 119.361 221.706Z" fill="#6ADB6A"/>
<path d="M121.682 221.706C122.028 221.706 122.307 221.426 122.307 221.081C122.307 220.735 122.028 220.455 121.682 220.455C121.337 220.455 121.058 220.735 121.058 221.081C121.058 221.426 121.337 221.706 121.682 221.706Z" fill="#6ADB6A"/>
<path d="M124.629 221.081C124.629 221.427 124.348 221.706 124.004 221.706C123.658 221.706 123.379 221.425 123.379 221.081C123.379 220.736 123.66 220.455 124.004 220.455C124.348 220.455 124.629 220.734 124.629 221.081Z" fill="#6ADB6A"/>
<path d="M137.389 196.835H136.117C135.993 196.835 135.894 196.735 135.894 196.612V193.088C135.894 192.965 135.993 192.865 136.117 192.865H137.389C137.512 192.865 137.611 192.965 137.611 193.088V196.612C137.611 196.733 137.512 196.835 137.389 196.835Z" fill="#93ACBF"/>
<path d="M122.687 71.6447H66.3784C65.3588 71.6447 64.532 70.8167 64.532 69.7958V17.0125C71.1655 10.3682 74.8864 6.64428 81.5199 0H122.687C123.706 0 124.533 0.827959 124.533 1.84886V69.7977C124.533 70.8186 123.706 71.6447 122.687 71.6447Z" fill="#FFD912"/>
<path d="M69.5381 66.6319V19.088L83.5946 5.0127H119.527V66.6319H69.5381Z" stroke="#F9ECB8" stroke-width="4.9962" stroke-miterlimit="10"/>
<path d="M74.5439 61.6211H114.521V10.0254H85.6672L74.5439 21.1635V61.6211Z" stroke="#F9ECB8" stroke-width="4.9962" stroke-miterlimit="10"/>
<path d="M79.55 56.6084V23.239L87.74 15.0381H109.515V56.6084H79.55Z" stroke="#F9ECB8" stroke-width="4.9962" stroke-miterlimit="10"/>
<path d="M84.5542 51.5956V25.3163L89.8128 20.0488H104.509V51.5956H84.5542Z" stroke="#F9ECB8" stroke-width="4.9962" stroke-miterlimit="10"/>
<path d="M89.5603 46.5828V27.3918L91.8875 25.0615H99.5031V46.5828H89.5603Z" stroke="#F9ECB8" stroke-width="4.9962" stroke-miterlimit="10"/>
<path d="M184.351 66.3886L180.183 54.2727L179.5 59.0194C171.965 48.7505 162.426 38.9067 141.379 30.998L127.186 34.7351C127.186 34.7351 151.982 37.3763 177.923 60.0441L173.235 61.1998L184.351 66.3886Z" fill="#4A6590"/>
<path d="M73.1168 75.7246L72.6042 89.6463L75.1522 85.1C78.7795 98.4673 84.603 112.192 102.855 128.465L118.71 130.239C118.71 130.239 94.5963 117.836 77.1519 84.6767L82.3581 85.3435L73.1168 75.7246Z" fill="#4A6590"/>
<path d="M298.142 78.1743L308.442 78.0001L307.904 67.1692L307.646 61.9898L307.631 61.7331L299.572 58.3389L299.31 61.9991L299.115 64.6666L298.142 78.1743Z" fill="#FDAE97"/>
<path d="M249.674 82.4922C249.463 82.8987 251.343 84.9424 253.111 85.9295C254.609 86.7687 258.27 88.3291 259.351 88.7806L262.139 84.0807C261.596 83.6555 261.012 83.1684 260.565 82.687C259.454 81.5125 256.068 78.6633 255.66 79.1579C255.253 79.6449 257.181 82.0688 256.841 82.1363C256.5 82.2018 254.673 80.7557 253.945 80.0776C253.21 79.3995 251.88 77.6949 251.309 77.8017C250.731 77.9103 250.673 78.7682 250.673 78.7682C250.673 78.7682 250.239 78.0564 249.846 78.4086C249.451 78.7608 249.85 80.0364 249.85 80.0364C249.85 80.0364 249.657 79.6168 249.319 80.1113C248.982 80.6134 250.224 82.3049 250.224 82.3049C250.224 82.3049 249.876 82.0782 249.674 82.4922Z" fill="#FDAE97"/>
<path d="M318.286 111.698L322.617 147.602C322.753 148.508 322.748 149.452 322.564 150.406C321.694 154.889 317.36 157.816 312.881 156.945C308.405 156.074 306.691 152.613 305.887 147.465C304.344 137.584 298.952 107.937 298.952 107.937L318.286 111.698Z" fill="#0A0B0C"/>
<path d="M290.201 109.892L306.111 110.959L306.033 128.611L304.143 131.407L302.393 148.424L286.288 147.135L290.201 109.892Z" fill="#0A0B0C"/>
<path d="M327.948 104.903L327.888 104.928C325.26 106.031 322.205 104.781 321.103 102.148L312.118 80.6976C311.016 78.0657 312.264 75.0068 314.894 73.9034L314.954 73.8791C317.583 72.7758 320.637 74.0252 321.739 76.6589L330.724 98.1109C331.826 100.741 330.577 103.798 327.948 104.903Z" fill="#455E86"/>
<path d="M284.331 101.096C282.733 103.609 279.6 104.516 277.389 103.098L266.157 95.5265L262.185 92.8365L258.04 90.0436L260.316 85.7539L261.933 82.7099L262.086 82.4121L266.658 84.9147L270.852 87.2038L283.197 93.9455C285.408 95.3654 285.928 98.5817 284.331 101.096Z" fill="#455E86"/>
<path d="M303.159 73.6453C299.381 73.7277 297.77 71.847 297.285 71.1089L298.698 70.4702L308.044 70L309.166 70.3597C308.693 71.2419 307.021 73.561 303.159 73.6453Z" fill="#FDAE97"/>
<path d="M289.747 97.1912L289.522 112.668H318.615L318.271 73.6506L308.287 70.0391C308.175 70.2451 308.053 70.4587 307.906 70.6834L307.868 70.7303C307.328 71.4215 306.293 72.0752 303.393 72.1389C300.978 72.1951 299.796 71.8598 299.124 71.4196L299.115 71.4103C298.752 71.1667 298.537 70.8783 298.369 70.616L288.944 72.6971L289.578 92.3921L289.747 97.1912Z" fill="#455E86"/>
<path d="M325.634 184.045L310.668 184.034L306.156 149.16C305.685 144.616 308.975 140.545 313.508 140.067C318.047 139.595 322.104 142.89 322.583 147.429C322.626 147.824 322.632 148.208 322.617 148.6L325.223 179.21L325.634 184.045Z" fill="#0A0B0C"/>
<path d="M277.585 103.162C280.165 104.478 283.351 103.443 284.666 100.859L295.231 80.1004C296.547 77.5173 295.512 74.3272 292.932 73.0103C290.353 71.6935 287.167 72.7294 285.852 75.3125L275.286 96.0714C273.971 98.6546 275.005 101.845 277.585 103.162Z" fill="#455E86"/>
<path d="M299.124 71.4178L303.393 78.1763L307.868 70.7266C307.327 71.4178 306.293 72.0715 303.393 72.1352C300.98 72.1933 299.796 71.858 299.124 71.4178Z" fill="#D6EAFF"/>
<path d="M320.636 133.438C321.083 133.536 322.557 131.181 323.041 129.212C323.455 127.545 323.993 123.598 324.145 122.433L318.883 120.978C318.617 121.614 318.299 122.306 317.955 122.864C317.115 124.246 315.263 128.268 315.847 128.532C316.425 128.798 318.25 126.296 318.404 126.607C318.557 126.917 317.644 129.064 317.182 129.946C316.724 130.834 315.431 132.569 315.684 133.092C315.94 133.622 316.782 133.451 316.782 133.451C316.782 133.451 316.211 134.058 316.655 134.345C317.098 134.633 318.222 133.912 318.222 133.912C318.222 133.912 317.869 134.21 318.436 134.405C319.01 134.598 320.31 132.953 320.31 132.953C320.31 132.953 320.183 133.35 320.636 133.438Z" fill="#FDAE97"/>
<path d="M302.451 147.797L298.608 184.043H283.904L286.261 147.598C286.243 147.214 286.351 146.785 286.383 146.388C286.785 141.836 290.398 138.436 294.943 138.833C299.484 139.238 302.847 143.245 302.451 147.797Z" fill="#0A0B0C"/>
<path d="M316.93 121.227L317.721 115.97L318.443 111.212L320.355 98.5158C320.918 95.9476 323.75 94.3629 326.661 94.9941C329.568 95.631 331.491 98.2554 330.934 100.827L327.366 113.511L326.076 118.121L324.736 122.882L316.93 121.227Z" fill="#455E86"/>
<path d="M298.831 68.6155L304.62 64.3877L299.115 64.6668L298.831 68.6155Z" fill="#EA9D85"/>
<path d="M299.691 52.3341C299.691 52.3341 298.775 55.6759 298.124 58.0474L297.585 60.0068C297.16 61.5559 296.964 63.9705 298.558 64.982C300.146 65.9898 302.737 65.9224 304.899 64.5699C307.064 63.2118 313.007 56.0487 308.695 51.611C304.377 47.1734 300.03 51.568 299.691 52.3341Z" fill="#FDAE97"/>
<path d="M307.752 64.1255C307.752 64.1255 304.955 59.819 306.48 57.367C308.005 54.9149 306.48 54.2987 305.41 54.4879C304.34 54.6752 302.48 54.6208 301.726 54.3268C301.726 54.3268 303.994 54.3811 304.955 53.8172C304.955 53.8172 300.486 54.1844 299.513 52.9837L299.274 53.8566C299.274 53.8566 297.663 50.0596 300.086 49.1754C302.507 48.2913 303.513 49.2934 303.513 49.2934C303.513 49.2934 302.742 47.7405 303.85 47.4465C304.957 47.1524 305.973 49.4002 305.973 49.4002C305.973 49.4002 307.524 47.4727 309.129 49.374C310.734 51.2753 310.064 53.0155 310.064 53.0155C310.064 53.0155 311.937 54.5684 311.028 57.0054C310.115 59.4425 307.954 61.7428 307.752 64.1255Z" fill="#322A28"/>
<path d="M306.437 61.0026C305.573 61.7837 305.23 62.4056 305.842 63.0837C306.454 63.7618 307.73 63.9529 308.592 63.1718C309.456 62.3906 309.66 61.2086 309.047 60.5287C308.437 59.8506 307.301 60.2233 306.437 61.0026Z" fill="#FDAE97"/>
<path d="M303.12 57.9547C303.021 58.3143 302.753 58.5541 302.521 58.4885C302.29 58.4249 302.181 58.0821 302.28 57.7224C302.379 57.3627 302.647 57.123 302.879 57.1885C303.111 57.2522 303.217 57.595 303.12 57.9547Z" fill="#332B27"/>
<path d="M298.782 56.76C298.683 57.1197 298.791 57.4624 299.023 57.5261C299.255 57.5898 299.523 57.3501 299.622 56.9923C299.721 56.6326 299.613 56.2898 299.381 56.2261C299.149 56.1624 298.879 56.4003 298.782 56.76Z" fill="#332B27"/>
<path d="M303.133 60.7332C303.849 60.6938 304.413 60.3696 304.393 60.0091C304.373 59.6485 303.777 59.3882 303.061 59.4277C302.345 59.4671 301.781 59.7913 301.8 60.1518C301.82 60.5123 302.417 60.7726 303.133 60.7332Z" fill="#E89780"/>
<path d="M298.122 58.0469L297.772 59.3207C298.29 59.5305 298.771 59.5042 298.922 59.2439C299.095 58.9348 298.737 58.4009 298.122 58.0469Z" fill="#E89780"/>
<path d="M307.941 62.2687C307.385 61.9971 306.873 61.9746 306.873 61.9746C307.664 61.1392 308.394 61.4632 308.394 61.4632" stroke="#EA9D85" stroke-width="1.4364" stroke-miterlimit="10" stroke-linecap="round" stroke-linejoin="round"/>
<path d="M301.73 61.958C301.73 61.958 300.773 63.0033 299.272 62.2839" stroke="#332B27" stroke-width="0.9188" stroke-miterlimit="10"/>
<path d="M301.266 57.7119L299.844 59.7874C299.7 59.9972 299.717 60.2782 299.888 60.4693L300.149 60.7653L300.417 61.0687" stroke="#332B27" stroke-width="0.9188" stroke-miterlimit="10"/>
<path d="M303.848 57.3686C303.848 57.3686 303.289 56.3964 302.323 56.3945" stroke="#332B27" stroke-width="0.9188" stroke-miterlimit="10"/>
<path d="M298.698 55.5388C298.698 55.5388 299.47 55.1229 300.207 55.7486" stroke="#332B27" stroke-width="0.9188" stroke-miterlimit="10"/>
<path d="M298.72 70.1387L303.393 72.1411L300.937 75.127L298.142 70.7137L298.72 70.1387Z" fill="white"/>
<path d="M308.029 69.6963L303.393 72.1408L305.604 75.0012L308.442 70.0972L308.029 69.6963Z" fill="white"/>
<path d="M296.487 189.71L296.88 184.045H285.865L285.435 189.71H296.487Z" fill="#FDAE97"/>
<path d="M285.668 186.611L296.88 184.045H285.865L285.668 186.611Z" fill="#EA9D85"/>
<path d="M312.837 189.709L312.414 184.035L323.698 184.045L323.889 189.709H312.837Z" fill="#FDAE97"/>
<path d="M312.65 187.199L323.698 184.045L312.414 184.035L312.65 187.199Z" fill="#EA9D85"/>
<path d="M309.714 52.8567C309.714 52.8567 311.024 52.1599 312.335 53.2576C312.335 53.2576 310.089 52.6151 309.714 53.4711C309.34 54.3291 309.714 52.8567 309.714 52.8567Z" fill="#322A28"/>
<path d="M308.991 71.2422L303.393 80.2561L297.871 71.8229" stroke="white" stroke-width="0.7475" stroke-miterlimit="10" stroke-linecap="round" stroke-linejoin="round"/>
<path d="M280.006 194.475H296.274L296.302 193.812L296.502 189.421H285.433C284.062 189.421 282.795 190.226 281.826 191.067C281.024 191.787 280.429 192.729 280.148 193.812C280.079 194.025 280.034 194.25 280.006 194.475Z" fill="#322A28"/>
<path d="M280.006 194.475H296.274L296.302 193.812H280.146C280.079 194.025 280.034 194.25 280.006 194.475Z" fill="#FFF1F0"/>
<path d="M285.098 190.324C285.098 190.324 286.505 187.853 287.451 188.829C288.398 189.807 285.098 190.324 285.098 190.324Z" stroke="#FFF1F0" stroke-width="1.1376" stroke-miterlimit="10" stroke-linecap="round" stroke-linejoin="round"/>
<path d="M285.592 190.816L285.096 190.324M285.096 190.324C285.096 190.324 283.689 187.853 282.743 188.829C281.796 189.807 285.096 190.324 285.096 190.324Z" stroke="#FFF1F0" stroke-width="1.1376" stroke-miterlimit="10" stroke-linecap="round" stroke-linejoin="round"/>
<path d="M284.72 190.816L285.098 190.323" stroke="#FFF1F0" stroke-width="1.1376" stroke-miterlimit="10" stroke-linecap="round" stroke-linejoin="round"/>
<path d="M329.233 194.475H312.966L312.938 193.812L312.738 189.421H323.807C325.178 189.421 326.444 190.226 327.413 191.067C328.216 191.787 328.811 192.729 329.091 193.812C329.159 194.025 329.205 194.25 329.233 194.475Z" fill="#322A28"/>
<path d="M329.233 194.475H312.966L312.938 193.812H329.093C329.159 194.025 329.205 194.25 329.233 194.475Z" fill="#FFF1F0"/>
<path d="M324.141 190.474C324.141 190.474 322.735 188.003 321.788 188.979C320.842 189.957 324.141 190.474 324.141 190.474Z" stroke="#FFF1F0" stroke-width="1.1376" stroke-miterlimit="10" stroke-linecap="round" stroke-linejoin="round"/>
<path d="M323.646 190.967L324.141 190.474M324.141 190.474C324.141 190.474 325.548 188.003 326.495 188.979C327.441 189.957 324.141 190.474 324.141 190.474Z" stroke="#FFF1F0" stroke-width="1.1376" stroke-miterlimit="10" stroke-linecap="round" stroke-linejoin="round"/>
<path d="M324.519 190.966L324.141 190.474" stroke="#FFF1F0" stroke-width="1.1376" stroke-miterlimit="10" stroke-linecap="round" stroke-linejoin="round"/>
<path d="M303.739 135.336L303.21 130.996L300.552 129.158L298.389 120.341" stroke="white" stroke-width="1.6477" stroke-miterlimit="10"/>
<path d="M285.435 179.604H295.896" stroke="white" stroke-width="1.6477" stroke-miterlimit="10"/>
<path d="M313.426 179.604H323.889" stroke="white" stroke-width="1.6477" stroke-miterlimit="10"/>
<path d="M197.848 154.718C198.076 155.122 196.239 157.259 194.477 158.322C192.986 159.224 189.325 160.933 188.242 161.427L185.253 156.754C185.79 156.304 186.364 155.789 186.802 155.285C187.889 154.054 191.228 151.048 191.658 151.537C192.09 152.018 190.214 154.543 190.562 154.598C190.91 154.654 192.715 153.122 193.43 152.41C194.152 151.698 195.442 149.92 196.026 150.01C196.617 150.1 196.703 150.969 196.703 150.969C196.703 150.969 197.119 150.233 197.53 150.576C197.942 150.921 197.581 152.228 197.581 152.228C197.581 152.228 197.762 151.795 198.121 152.286C198.48 152.784 197.278 154.543 197.278 154.543C197.278 154.543 197.627 154.304 197.848 154.718Z" fill="#FDAE97"/>
<path d="M150.921 127C147.043 127.337 143.674 130.638 143.627 135.353C143.581 140.068 142.726 142.493 139.88 141.944C139.88 141.944 147.853 146.573 158.357 142.49C158.357 142.49 157.04 140.925 156.857 137.385C156.672 133.845 150.921 127 150.921 127Z" fill="#322A28"/>
<path d="M171.32 175.166C168.848 176.497 165.738 175.563 164.407 173.088L154.409 154.485C153.078 152.011 154.012 148.896 156.483 147.564C158.954 146.232 162.065 147.167 163.395 149.641L173.394 168.244C174.726 170.72 173.793 173.834 171.32 175.166Z" fill="#F9E181"/>
<path d="M148.596 181.356C145.255 185.736 143.996 194.817 146.127 204.601C148.257 214.385 148.976 220.816 148.976 220.816C149.531 225.345 153.647 228.565 158.17 228.009C162.694 227.452 165.909 223.331 165.354 218.802L161.957 181.356H148.596Z" fill="#0A0B0C"/>
<path d="M147.859 145.445L138.928 149.495C138.928 149.495 140.913 172.515 141.119 175.035C141.325 177.552 140.554 181.357 140.554 181.357H161.955C161.955 181.357 161.698 169.023 163.135 165.579C164.108 163.246 164.778 161.827 164.213 159.155C163.648 156.482 159.517 151.758 160.185 147.133L155.527 145.638L147.859 145.445Z" fill="#455E86"/>
<path d="M131.765 178.881C129.129 177.914 127.762 174.964 128.727 172.324L135.982 152.487C136.947 149.848 139.893 148.478 142.529 149.445C145.165 150.411 146.533 153.362 145.567 156.001L138.313 175.838C137.346 178.478 134.399 179.847 131.765 178.881Z" fill="#F9E181"/>
<path d="M156.605 132.104C156.605 132.104 157.82 129.111 154.898 128.204L156.605 132.104Z" fill="#332B27"/>
<path d="M155.527 135.234V145.636C155.527 145.636 155.318 147.918 152.613 148.12C150.278 148.298 148.787 146.756 148.158 145.934L147.827 145.451L147.82 145.443L148.924 135.234H155.527Z" fill="#FDAE97"/>
<path d="M155.525 144.453L150.921 139.438L155.529 141.171L155.525 144.453Z" fill="#E89780"/>
<path d="M150.959 140.549C153.112 141.819 155.651 141.819 157.183 140.787C158.717 139.76 158.464 137.396 158.008 135.896C158.006 135.89 158.006 135.89 158.004 135.885C157.909 135.574 157.774 135.137 157.622 134.643C157.037 132.704 156.171 129.832 156.171 129.832C155.793 128.315 151.451 124.902 147.343 129.353C143.237 133.811 148.806 139.279 150.959 140.549Z" fill="#FDAE97"/>
<path d="M156.034 129.219C156.034 129.219 155.978 131.038 153.434 132.252C150.89 133.468 148.476 135.324 148.78 138.01C149.084 140.696 148.164 142.21 148.164 142.21C148.164 142.21 147.786 138.864 146.101 136.03C145.446 134.931 144.873 132.612 145.96 130.613C147.674 127.457 152.096 125.061 156.034 129.219Z" fill="#322A28"/>
<path d="M149.215 137.434C149.762 138.243 149.919 138.82 149.283 139.249C148.649 139.68 147.571 139.577 147.023 138.768C146.477 137.958 146.548 136.952 147.182 136.523C147.818 136.093 148.669 136.625 149.215 137.434Z" fill="#FDAE97"/>
<path d="M147.784 138.037C148.317 137.777 148.781 138.011 148.781 138.011C148.413 137.087 147.305 137.46 147.305 137.46" stroke="#E89780" stroke-width="0.6481" stroke-miterlimit="10" stroke-linecap="round" stroke-linejoin="round"/>
<path d="M153.213 135.036C153.314 135.4 153.587 135.641 153.821 135.576C154.057 135.51 154.165 135.162 154.064 134.798C153.963 134.435 153.69 134.193 153.456 134.259C153.221 134.324 153.112 134.673 153.213 135.036Z" fill="#2C3447"/>
<path d="M156.167 133.901C156.26 134.236 156.511 134.461 156.728 134.399C156.945 134.339 157.046 134.017 156.952 133.681C156.859 133.346 156.608 133.121 156.391 133.183C156.174 133.243 156.073 133.563 156.167 133.901Z" fill="#2C3447"/>
<path d="M168.315 263.422H153.819L148.843 220.756L148.78 219.78C148.78 215.142 152.596 211.403 157.261 211.544C161.467 211.666 164.991 215.092 165.24 219.303L168.315 263.422Z" fill="#0A0B0C"/>
<path d="M151.969 134.461C151.969 134.461 152.446 133.352 153.389 133.442" stroke="#2C3447" stroke-width="0.9621" stroke-miterlimit="10"/>
<path d="M155.757 132.607C155.757 132.607 156.26 132.36 156.982 132.777" stroke="#2C3447" stroke-width="0.9621" stroke-miterlimit="10"/>
<path d="M141.843 263.422H128.009L132.4 219.353L132.413 219.199C132.706 214.917 136.274 211.536 140.627 211.536C145.177 211.536 148.86 215.224 148.86 219.78C148.86 220.035 148.847 220.284 148.823 220.528L141.843 263.422Z" fill="#0A0B0C"/>
<path d="M189.645 163.628L172.717 174.354L171.716 175.188C169.675 176.604 166.682 175.868 165.075 173.545C163.468 171.224 163.831 168.165 165.874 166.749L184.835 156.107L185.254 156.757L188.244 161.431L189.645 163.628Z" fill="#F9E181"/>
<path d="M154.942 134.173C154.942 134.173 155.484 135.964 156.601 135.891C156.601 135.891 156.35 136.29 155.963 136.533" stroke="#2C3447" stroke-width="0.9621" stroke-miterlimit="10"/>
<path d="M155.245 181.36L155.052 182.561L148.843 220.55C148.368 225.09 144.308 228.38 139.776 227.904C135.25 227.428 131.956 223.363 132.431 218.824C132.431 218.824 133.18 212.398 133.301 202.381C133.398 194.624 135.153 188.366 137.916 184.318C138.721 183.142 139.607 182.149 140.558 181.358H155.245V181.36Z" fill="#0A0B0C"/>
<path d="M156.56 137.985C156.56 137.985 155.523 138.807 154.319 137.747" stroke="#2C3447" stroke-width="0.9621" stroke-miterlimit="10"/>
<path d="M151.454 136.627C151.443 137.02 152.059 137.355 152.829 137.378C153.6 137.398 154.233 137.097 154.244 136.703C154.255 136.31 153.639 135.975 152.869 135.952C152.1 135.932 151.466 136.233 151.454 136.627Z" fill="#E89780"/>
<path d="M157.19 135.697C157.314 135.907 157.628 135.965 158.004 135.885C157.908 135.574 157.774 135.137 157.622 134.643C157.218 135.012 157.027 135.437 157.19 135.697Z" fill="#E89780"/>
<path d="M149.582 139.248C149.672 139.584 149.472 139.928 149.139 140.018C148.804 140.108 148.46 139.91 148.37 139.574C148.28 139.239 148.478 138.894 148.813 138.805C149.148 138.713 149.492 138.913 149.582 139.248Z" stroke="white" stroke-width="0.8515" stroke-miterlimit="10"/>
<path d="M125.225 272.78H135.903L137.29 270.667L137.258 272.78H139.609L139.398 266.675L139.914 263.418H131.217L131.185 266.675L125.225 272.78Z" fill="#FDAE97"/>
<path d="M155.856 145.594L155.318 156.53L148.158 145.933C148.787 146.755 150.276 148.295 152.613 148.119C155.318 147.918 155.856 145.594 155.856 145.594Z" fill="#E5F0F8"/>
<path d="M147.885 144.854L153.224 148.032L152.096 150.01L147.133 145.775L147.885 144.854Z" fill="white"/>
<path d="M155.525 145.309L153.224 148.032L154.614 149.713L156.064 145.811L155.525 145.309Z" fill="white"/>
<path d="M184.224 179.03L155.475 180.238L162.074 158.365L190.824 157.158L184.224 179.03Z" fill="#A5BBD6"/>
<path d="M155.744 179.178L145.996 171.247L173.802 170.078L184.493 177.97L155.744 179.178Z" fill="#89A5C7"/>
<path d="M183.661 178.577L154.912 179.783L161.511 157.911L190.261 156.703L183.661 178.577Z" fill="#A5BBD6"/>
<path d="M190.261 156.703L190.824 157.158L162.075 158.365L155.475 180.238L154.912 179.783L161.511 157.911L190.261 156.703Z" fill="#89A5C7"/>
<path d="M145.996 171.247L145.726 172.305L155.475 180.238L155.796 179.176L145.996 171.247Z" fill="#586773"/>
<path d="M174.428 170.302C176.188 170.228 177.588 169.535 177.555 168.755C177.522 167.974 176.069 167.402 174.309 167.476C172.549 167.549 171.149 168.242 171.182 169.022C171.214 169.803 172.668 170.375 174.428 170.302Z" fill="#89A5C7"/>
<path d="M163.637 272.78L161.083 270.877L161.302 272.78H158.926L157.759 266.675L157.13 263.418H166.344L166.697 266.675L174.09 272.78H163.637Z" fill="#FDAE97"/>
<path d="M131.185 266.676L125.225 272.781H135.903L137.29 270.668L137.258 272.781H139.609L139.398 266.676H131.185Z" fill="#322A28"/>
<path d="M163.637 272.781L161.083 270.877L161.302 272.781H158.926L157.759 266.676H166.697L174.09 272.781H163.637Z" fill="#322A28"/>
<path d="M167.344 173.827C167.761 174.252 167.313 175.001 167.313 175.001C167.313 175.001 168.089 174.66 168.207 175.179C168.321 175.662 167.404 176.427 167.284 176.526C167.372 176.483 167.668 176.38 167.659 176.908C167.653 177.491 165.825 178.139 165.653 178.199C165.719 178.208 166.055 178.26 165.996 178.68C165.924 179.148 163.18 179.757 161.137 179.557C159.414 179.384 155.478 178.551 154.302 178.298L154.612 172.772C155.333 172.738 156.139 172.661 156.801 172.517C158.412 172.18 162.883 171.779 162.937 172.429C162.993 173.072 159.983 173.973 160.228 174.222C160.473 174.471 162.832 174.33 163.829 174.194C164.838 174.053 166.935 173.403 167.344 173.827Z" fill="#FDAE97"/>
<path d="M154.71 171.101L154.612 172.772L154.302 178.298L154.219 179.765L132.826 179.411C130.344 179.324 128.389 176.945 128.482 174.122C128.587 171.294 130.701 169.063 133.191 169.151L134.803 169.426L134.811 169.43L154.71 171.101Z" fill="#F9E181"/>
<path d="M150.693 170.764L140.481 169.904L142.58 164.163" stroke="#2C3447" stroke-width="0.9621" stroke-miterlimit="10"/>
<path d="M140.859 179.542H136.218" stroke="#2C3447" stroke-width="0.9621" stroke-miterlimit="10"/>
<path d="M154.11 136.396C154.597 136.154 154.735 135.439 154.418 134.8C154.101 134.161 153.449 133.838 152.962 134.08C152.475 134.322 152.338 135.037 152.655 135.676C152.972 136.316 153.623 136.638 154.11 136.396Z" stroke="white" stroke-width="1.2537" stroke-miterlimit="10"/>
<path d="M157.33 133.678C157.647 134.316 157.51 135.032 157.024 135.274C156.537 135.515 155.886 135.193 155.568 134.554C155.252 133.915 155.389 133.2 155.875 132.958C156.363 132.715 157.014 133.037 157.33 133.678Z" stroke="white" stroke-width="1.2537" stroke-miterlimit="10"/>
<path d="M154.242 134.523L155.424 134.114" stroke="white" stroke-width="1.2537" stroke-miterlimit="10"/>
<path d="M421.731 165.111C422.092 165.111 422.092 164.549 421.731 164.549C421.368 164.549 421.368 165.111 421.731 165.111Z" fill="#85A5D3"/>
<path d="M0.271273 212.937C0.63232 212.937 0.63232 212.375 0.271273 212.375C-0.0897734 212.375 -0.0897734 212.937 0.271273 212.937Z" fill="#4A6590"/>
</g>
<defs>
<clipPath id="clip0_650_12290">
<rect width="422" height="280" fill="white"/>
</clipPath>
</defs>
</svg>
